<?xml version="1.0" encoding="UTF-8" standalone="no"?>
<svg
   xmlns:dc="http://purl.org/dc/elements/1.1/"
   xmlns:cc="http://creativecommons.org/ns#"
   xmlns:rdf="http://www.w3.org/1999/02/22-rdf-syntax-ns#"
   xmlns:svg="http://www.w3.org/2000/svg"
   xmlns="http://www.w3.org/2000/svg"
   viewBox="0 0 1122.52 793.70667"
   height="793.70667"
   width="1122.52"
   xml:space="preserve"
   id="svg2"
   version="1.1"><metadata
     id="metadata8"><rdf:RDF><cc:Work
         rdf:about=""><dc:format>image/svg+xml</dc:format><dc:type
           rdf:resource="http://purl.org/dc/dcmitype/StillImage" /></cc:Work></rdf:RDF></metadata><defs
     id="defs6"><clipPath
       id="clipPath32"
       clipPathUnits="userSpaceOnUse"><path
         id="path30"
         d="M 0,595.28 H 841.89 V 0 H 0 Z" /></clipPath></defs><g
     transform="matrix(1.3333333,0,0,-1.3333333,0,793.70667)"
     id="g10"><path
       id="path12"
       style="fill:#d1d3d4;fill-opacity:1;fill-rule:nonzero;stroke:none"
       d="M 240.819,340.504 H 630.178 V 274.566 H 240.819 Z" /><g
       transform="translate(369.7007,295.6494)"
       id="g14"><path
         id="path16"
         style="fill:#ffffff;fill-opacity:1;fill-rule:evenodd;stroke:none"
         d="M 0,0 -12.326,17.438 V 0.327 h -3.09 v 23.852 h 1.301 L -2.118,7.688 V 24.179 H 0.977 L 0.977,0 Z" /></g><g
       transform="translate(382.1519,316.8975)"
       id="g18"><path
         id="path20"
         style="fill:#ffffff;fill-opacity:1;fill-rule:evenodd;stroke:none"
         d="M 0,0 V -6.626 H 7.881 V -9.394 H 0 v -8.596 h 10.812 v -2.931 H -3.257 V 2.931 h 14.245 l 0,-2.931 z" /></g><g
       transform="translate(412.5464,295.9766)"
       id="g22"><path
         id="path24"
         style="fill:#ffffff;fill-opacity:1;fill-rule:evenodd;stroke:none"
         d="M 0,0 -5.926,9.572 -11.397,0 h -3.291 l 7.035,12.371 -6.463,11.498 3.207,-0.017 5.096,-9.02 5.618,9.02 H 3.076 L -4.33,12.311 3.451,0 Z" /></g><g
       id="g26"><g
         clip-path="url(#clipPath32)"
         id="g28"><g
           transform="translate(421.9858,319.8281)"
           id="g34"><path
             id="path36"
             style="fill:#ffffff;fill-opacity:1;fill-rule:evenodd;stroke:none"
             d="m 0,0 h 3.256 v -16.33 c 0,-1.454 0.459,-2.652 1.385,-3.598 0.922,-0.933 2.143,-1.398 3.66,-1.398 1.61,0 2.875,0.455 3.793,1.366 0.922,0.911 1.383,2.149 1.383,3.711 V 0 h 3.258 v -16.59 c 0,-2.409 -0.754,-4.293 -2.262,-5.648 -1.5,-1.347 -3.543,-2.02 -6.139,-2.02 -2.671,0 -4.724,0.661 -6.169,1.985 C 0.721,-20.948 0,-19.049 0,-16.574 Z" /></g><g
           transform="translate(445.8652,297.0674)"
           id="g38"><path
             id="path40"
             style="fill:#ffffff;fill-opacity:1;fill-rule:evenodd;stroke:none"
             d="M 0,0 1.189,2.995 C 1.799,2.551 2.551,2.177 3.451,1.872 4.363,1.579 5.18,1.435 5.896,1.435 c 1.268,0 2.288,0.343 3.057,1.038 0.774,0.697 1.152,1.578 1.16,2.657 0,0.802 -0.215,1.544 -0.654,2.23 C 9.037,8.057 7.961,8.809 6.236,9.624 l -1.92,0.895 c -1.627,0.759 -2.769,1.659 -3.423,2.701 -0.641,1.042 -0.957,2.297 -0.957,3.761 0,1.781 0.63,3.254 1.892,4.428 1.254,1.17 2.873,1.759 4.852,1.759 2.633,0 4.466,-0.429 5.5,-1.287 L 11.217,19.05 c -0.436,0.314 -1.098,0.617 -1.983,0.912 -0.89,0.294 -1.718,0.437 -2.476,0.437 -1.11,0 -1.985,-0.312 -2.619,-0.943 -0.633,-0.629 -0.951,-1.436 -0.951,-2.427 0,-0.609 0.117,-1.161 0.345,-1.659 0.229,-0.5 0.545,-0.916 0.946,-1.254 0.41,-0.338 1.248,-0.81 2.505,-1.418 l 1.952,-0.927 c 1.63,-0.77 2.771,-1.691 3.419,-2.769 0.666,-1.064 0.997,-2.42 0.997,-4.068 0,-1.793 -0.719,-3.312 -2.168,-4.56 C 9.758,-0.874 7.834,-1.497 5.422,-1.497 3.305,-1.497 1.5,-0.997 0,0" /></g><g
           transform="translate(479.6895,319.8281)"
           id="g42"><path
             id="path44"
             style="fill:#ffffff;fill-opacity:1;fill-rule:evenodd;stroke:none"
             d="m 0,0 h 3.258 v -16.33 c 0,-1.454 0.459,-2.652 1.383,-3.598 0.925,-0.933 2.146,-1.398 3.666,-1.398 1.605,0 2.869,0.455 3.791,1.366 0.922,0.911 1.386,2.149 1.386,3.711 V 0 h 3.254 v -16.59 c 0,-2.409 -0.752,-4.293 -2.263,-5.648 -1.498,-1.347 -3.543,-2.02 -6.135,-2.02 -2.67,0 -4.731,0.661 -6.174,1.985 C 0.727,-20.948 0,-19.049 0,-16.574 Z" /></g><g
           transform="translate(520.0625,295.6494)"
           id="g46"><path
             id="path48"
             style="fill:#ffffff;fill-opacity:1;fill-rule:evenodd;stroke:none"
             d="M 0,0 -12.322,17.438 V 0.327 h -3.092 v 23.852 h 1.301 L -2.111,7.688 V 24.179 H 0.98 L 0.98,0 Z" /></g><path
           id="path50"
           style="fill:#ffffff;fill-opacity:1;fill-rule:evenodd;stroke:none"
           d="m 529.832,319.828 h 3.256 v -23.852 h -3.256 z" /><g
           transform="translate(564.1816,294.2188)"
           id="g52"><path
             id="path54"
             style="fill:#ffffff;fill-opacity:1;fill-rule:evenodd;stroke:none"
             d="m 0,0 -0.492,-3.176 c -5.684,0 -9.41,1.579 -11.182,4.739 -0.336,-0.142 -1.06,-0.211 -2.166,-0.211 -3.002,0 -5.363,1.17 -7.066,3.515 -1.692,2.346 -2.535,5.35 -2.535,9.02 0,3.44 0.855,6.323 2.586,8.644 1.726,2.337 4.062,3.502 7.015,3.502 3.315,0 5.846,-1.07 7.604,-3.208 1.769,-2.138 2.65,-5.117 2.65,-8.938 0,-5.482 -1.637,-9.241 -4.912,-11.283 C -7.316,0.868 -5.332,0 -2.541,0 Z m -13.84,23.104 c -2.015,0 -3.555,-0.827 -4.605,-2.476 -1.055,-1.649 -1.582,-3.899 -1.582,-6.741 0,-2.736 0.537,-5.02 1.615,-6.855 1.082,-1.835 2.605,-2.749 4.572,-2.749 2.236,0 3.938,0.844 5.1,2.539 1.156,1.703 1.736,4.057 1.736,7.065 0,6.143 -2.279,9.217 -6.836,9.217" /></g><g
           transform="translate(567.7402,319.8281)"
           id="g56"><path
             id="path58"
             style="fill:#ffffff;fill-opacity:1;fill-rule:evenodd;stroke:none"
             d="m 0,0 h 3.26 v -16.33 c 0,-1.454 0.459,-2.652 1.385,-3.598 0.918,-0.933 2.144,-1.398 3.664,-1.398 1.601,0 2.867,0.455 3.793,1.366 0.918,0.911 1.38,2.149 1.38,3.711 V 0 h 3.258 v -16.59 c 0,-2.409 -0.754,-4.293 -2.261,-5.648 -1.502,-1.347 -3.549,-2.02 -6.141,-2.02 -2.666,0 -4.727,0.661 -6.166,1.985 C 0.727,-20.948 0,-19.049 0,-16.574 Z" /></g><g
           transform="translate(595.9551,316.8975)"
           id="g60"><path
             id="path62"
             style="fill:#ffffff;fill-opacity:1;fill-rule:evenodd;stroke:none"
             d="M 0,0 V -6.626 H 7.881 V -9.394 H 0 v -8.596 h 10.813 v -2.931 H -3.258 V 2.931 h 14.246 l 0,-2.931 z" /></g><path
           id="path64"
           style="fill:#ffffff;fill-opacity:1;fill-rule:nonzero;stroke:none"
           d="m 312.671,319.934 h 24.071 v -24.071 h -24.071 z" /><path
           id="path66"
           style="fill:#f7931d;fill-opacity:1;fill-rule:nonzero;stroke:none"
           d="m 288.598,319.934 h 24.073 v -24.071 h -24.073 z" /><path
           id="path68"
           style="fill:#a066ab;fill-opacity:1;fill-rule:nonzero;stroke:none"
           d="m 264.526,319.934 h 24.072 v -24.071 h -24.072 z" /></g></g></g></svg>