<svg xmlns="http://www.w3.org/2000/svg" viewBox="0 0 200.2 69.7">
  <defs>
    <style>
      .cls-1 {
        fill: #752149;
      }

      .cls-2 {
        fill: #e2373b;
      }

      .cls-3 {
        fill: #274b7d;
      }
    </style>
  </defs>
  <title>sapura-logo-real</title>
  <g id="Layer_2" data-name="Layer 2">
    <g id="Layer_1-2" data-name="Layer 1">
      <g>
        <polyline class="cls-1" points="0 34.8 17.4 52.2 17.4 34.8 0 34.8"/>
        <polyline class="cls-1" points="52.2 17.4 52.2 34.8 69.7 34.8 52.2 17.4"/>
        <polyline class="cls-2" points="34.8 52.2 34.8 69.7 52.2 52.2 34.8 52.2"/>
        <path class="cls-2" d="M17.4,17.4h0L0,34.8H17.4V22.6a5.2,5.2,0,0,1,5.1-5.2H17.4"/>
        <path class="cls-2" d="M52.2,17.4,39.8,29.9c-4.3,4.2-6.1,5-10.1,5H52.2V17.4"/>
        <polyline class="cls-3" points="17.4 17.4 34.8 17.4 34.8 0 17.4 17.4"/>
        <path class="cls-3" d="M52.2,34.8V47.1a5.2,5.2,0,0,1-5.1,5.2h5.1L69.7,34.8H52.2"/>
        <path class="cls-3" d="M17.4,52.2,29.9,39.8c4.3-4.2,6.1-5,10.1-5H17.4V52.2"/>
        <path class="cls-3" d="M85.4,49a19,19,0,0,1-7.5-1.6V43.1A15.7,15.7,0,0,0,84.8,45c3.1,0,5.7-1.7,5.7-5,0-8-12.1-7.7-12.1-17.3,0-5.8,4.5-9.4,9.9-9.4a14.2,14.2,0,0,1,5.5,1.2v3.8a11,11,0,0,0-4.6-1.1c-2.9,0-5.1,1.5-5.1,4.7,0,6.5,12.2,6.8,12.2,17.4,0,6.1-5.3,9.7-10.9,9.7"/>
        <path class="cls-3" d="M112.2,32.9c-4.3.6-8.6,2.2-8.6,7.2a5.1,5.1,0,0,0,5.4,5.4,10.1,10.1,0,0,0,3.3-.6V32.9m-4.1,15.8c-5.1,0-10.2-2.5-10.2-8.2,0-7.4,8.5-9.7,14.3-10.2,0-4.5-2.1-5.9-6.3-5.9h-5.1V21h6.5c7.4,0,10.4,3.6,10.4,9.3V48.7Z"/>
        <path class="cls-3" d="M128.3,24.2h-1.7V45.1a7.1,7.1,0,0,0,2.4.4,5.9,5.9,0,0,0,4.6-2c1.7-1.9,2.4-5.8,2.4-8.5,0-7.5-2.5-10.9-7.6-10.9m.8,24.5h-2.5v7.9h-5.5V21h7.5c8.1,0,13,5.6,13,13.8S137.6,48.7,129.1,48.7Z"/>
        <path class="cls-3" d="M154.7,48.7c-3.1,0-6.3-.7-8.4-2.8s-2.2-4.6-2.2-7.2V21h5.5V39.3c0,4,1.5,6.2,5.8,6.2a13.9,13.9,0,0,0,3-.3V21h5.5V48.7h-9.3"/>
        <path class="cls-3" d="M179,24.3c-4.4,0-6.2,1.2-6.2,5.4v19h-5.5V31c0-2.9.5-5.1,1.7-6.8s5.2-3.1,8.3-3.1h4v3.3H179"/>
        <path class="cls-3" d="M194.7,32.9c-4.3.6-8.6,2.2-8.6,7.2a5.1,5.1,0,0,0,5.4,5.4,10.1,10.1,0,0,0,3.3-.6V32.9m-4.1,15.8c-5.1,0-10.2-2.5-10.2-8.2,0-7.4,8.5-9.7,14.3-10.2,0-4.5-2.1-5.9-6.3-5.9h-5V21h6.5c7.4,0,10.4,3.6,10.4,9.3V48.7Z"/>
      </g>
    </g>
  </g>
</svg>
